<!--?xml version="1.0" encoding="utf-8"?-->
<!-- Generator: Adobe Illustrator 22.0.1, SVG Export Plug-In . SVG Version: 6.00 Build 0)  -->
<svg version="1.1" xmlns="http://www.w3.org/2000/svg" xmlns:xlink="http://www.w3.org/1999/xlink" x="0px" y="0px" viewBox="0 0 1009 166" style="" xml:space="preserve">
<style type="text/css">
	.st0{fill:none;stroke:#FFFFFF;stroke-width:9.2019;stroke-miterlimit:10;}
	.st1{fill:none;stroke:#40B374;stroke-width:12.5073;stroke-linecap:round;stroke-linejoin:round;stroke-miterlimit:10;}
</style>
<g id="Слой_1">
</g>
<g id="Слой_2">
	<g>
		<path class="st0 SKDdAcLO_0" d="M230.4,140.6c-10.3-29-29.4-82.9-39.9-109.1c-0.1-0.2-0.2-0.6-0.4-1.1c-0.9-2.4-2.3-6.3-4.5-9.9
			c-4.6-7.7-10.1-9.4-13.9-9.4c-4,0-9.6,1.6-14.1,9.4c-2.1,3.7-3.4,7.7-4.2,10.1c-0.1,0.4-0.3,0.9-0.4,1.1l-42.4,115.8
			c-1.6,4.3,0.6,9.1,4.9,10.6c0.9,0.3,1.9,0.5,2.8,0.5c3.4,0,6.5-2.1,7.8-5.4l10.8-29.5h69.8c3,8.3,5.7,15.9,8,22.4
			c0.9,2.5,1.7,4.9,2.5,7c1.2,3.4,4.4,5.5,7.8,5.5c0.9,0,1.9-0.2,2.8-0.5c4.3-1.5,6.6-6.3,5-10.6
			C232.1,145.5,231.3,143.1,230.4,140.6z M143.1,107.2l25.5-69.8c0.2-0.5,0.4-1.1,0.6-1.8c0.5-1.5,1.1-3.5,2-5.4
			c0.1-0.3,0.3-0.6,0.4-0.9c0.2,0.3,0.4,0.7,0.6,1.1c1,2,1.7,4.1,2.3,5.6c0.2,0.6,0.4,1.1,0.6,1.5c6.6,16.5,16.7,44.2,25.8,69.6
			H143.1z"></path>
		<path class="st0 SKDdAcLO_1" d="M472.1,21.1c-4.7-4.6-10.8-8.1-18.1-10.6c-7-2.4-15.5-3.6-25.2-3.6c-9.7,0-18.2,1.2-25.2,3.6
			c-7.3,2.5-13.4,6.1-18.1,10.6c-4.9,4.7-8.4,10.4-10.6,16.9c-1.8,5.4-3.4,10.9-3.4,18.8v52.1c0,7.3,1.3,14.2,3.7,20.5
			c2.4,6.2,6.1,11.8,10.8,16.6c9.5,9.6,23.8,14.5,42.7,14.5c18.6,0,32.4-4.7,42-14.5c9.4-9.6,14.2-22.1,14.2-37.1V56.7
			c0-6.9-0.2-12.3-2.3-18.8C480.5,31.4,476.9,25.8,472.1,21.1z M468.3,108.8c0,10.7-3.1,19-9.5,25.5c-6.4,6.5-16,9.6-30.2,9.6
			c-14.3,0-24.7-3.2-30.9-9.6c-6.6-6.7-9.8-15.1-9.8-25.5V56.7c0-5.4,1.1-9,2.6-13.6c1.3-4,3.4-7.3,6.3-10.1c3-2.9,7-5.2,12-6.9
			c5.3-1.8,12-2.7,19.8-2.7c7.9,0,14.6,0.9,19.8,2.7c5,1.7,9,4,12,6.9c2.9,2.8,5,6.1,6.3,10.1c1.3,4,1.4,7.4,1.4,13.6V108.8z"></path>
		<path class="st0 SKDdAcLO_2" d="M349,8.6c-4.3-1.6-9.1,0.5-10.7,4.8L292.5,135L247.8,14.4c-1.6-4.3-6.4-6.5-10.6-4.9
			c-4.3,1.6-6.5,6.4-4.9,10.6l46,124.4c0.1,0.2,0.1,0.3,0.2,0.5c4,9.1,10.2,10.5,13.5,10.6c0.1,0,0.1,0,0.2,0
			c5.7,0,10.8-3.8,14-10.3c0.1-0.2,0.2-0.5,0.3-0.7l47.3-125.3C355.4,15,353.3,10.2,349,8.6z"></path>
		<path class="st0 SKDdAcLO_3" d="M746.7,91.5c-3.6-3.5-8.3-6.6-14.4-9.6c-10.4-5.1-22.8-8.8-33.8-12.1c-6.2-1.9-12.1-3.6-15.8-5.1
			c-5.3-2.9-9.2-9.7-9.7-17.2c-0.2-3.5,0-12.3,8-17.9c21.4-14.9,55.4-2,55.7-1.8c4.3,1.7,9.1-0.4,10.7-4.7c1.7-4.3-0.4-9.1-4.7-10.7
			c-1.7-0.7-42.5-16.3-71.2,3.7c0,0,0,0-0.1,0c-5.5,3.9-9.5,8.9-12.1,15c-2.3,5.4-3.3,11.5-2.8,17.6c0.4,6.3,2.3,12.5,5.5,17.8
			c3.4,5.7,8,10.2,13.4,13c0.2,0.1,0.4,0.2,0.6,0.3c4.5,1.9,10.7,3.8,17.9,5.9c10.3,3.1,22,6.6,31.2,11.1c8.2,4,12.8,8.1,13.1,11.6
			c0.6,8.3,0.5,17.7-5.2,24.2c-5.7,6.4-16.6,10-32.5,10.7c-18.1,0.5-31.8-6.1-31.9-6.2l0,0c-10.8-2.1-16.4,8.9-7.3,14.9
			c0.7,0.3,16.2,7.9,37.4,7.9c0.8,0,1.6,0,2.4,0c0.1,0,0.1,0,0.2,0c10.5-0.5,19.6-2.1,27-4.9c7.1-2.7,12.9-6.5,17.2-11.4
			c9.9-11.2,10.2-25.3,9.3-36.4C754.2,101.4,751.5,96.1,746.7,91.5z"></path>
		<path class="st0 SKDdAcLO_4" d="M588,91.2c12.2-2,21.9-6.3,28.7-12.7c3.5-3.2,6.2-7,8-11.2c2-4.6,3-9.7,3-15.2c0-12.4-3.9-22.5-11.6-30
			c-5.6-5.5-13.3-9.5-22.3-11.5c-6.2-1.4-11-1.4-11.9-1.4h-55.2c-4.6,0-8.3,3.7-8.3,8.3v134.7c0,4.6,3.7,8.3,8.3,8.3
			s8.3-3.7,8.3-8.3V92.5l33.3-0.2l46.3,63.6c1.6,2.2,4.1,3.4,6.7,3.4c1.7,0,3.4-0.5,4.9-1.6c3.7-2.7,4.5-7.9,1.8-11.6L588,91.2z
			 M535.1,25.8H582c0.1,0,0.1,0,0.1,0c0,0,0,0,0,0c0.7,0,14.2,0.1,22.4,8.2c4.4,4.3,6.5,10.3,6.5,18.1c0,6-1.9,10.7-5.7,14.3
			c-4.6,4.3-12.1,7.3-21.7,8.7c-7.9,1.1-14.3,0.8-14.4,0.8c-0.2,0-0.4,0-0.6,0L535.1,76V25.8z"></path>
		<path class="st0 SKDdAcLO_5" d="M113.4,19.8c2.3-4,0.9-9-3.1-11.3c-4-2.3-9-0.9-11.3,3.1L59.7,80.4L20.1,12c-2.3-4-7.4-5.3-11.3-3
			c-4,2.3-5.3,7.4-3,11.3l45.7,79v52.4c0,4.6,3.7,8.3,8.3,8.3s8.3-3.7,8.3-8.3V99.2L113.4,19.8z"></path>
		<path class="st0 SKDdAcLO_6" d="M1000.2,8.3c-4-2.3-9-0.9-11.3,3l-39.7,69l-39.8-69.2c-2.3-4-7.3-5.3-11.3-3.1c-4,2.3-5.3,7.3-3.1,11.3
			l45.8,79.8v52.1c0,4.6,3.7,8.3,8.3,8.3s8.3-3.7,8.3-8.3V99.2l45.8-79.6C1005.6,15.6,1004.2,10.6,1000.2,8.3z"></path>
		<path class="st0 SKDdAcLO_7" d="M821.5,75.5l54-56.2c3.2-3.3,3.1-8.5-0.2-11.7c-3.3-3.2-8.5-3.1-11.7,0.2l-67.8,70.6V12.9
			c0-4.6-3.7-8.3-8.3-8.3s-8.3,3.7-8.3,8.3v140.2c0,4.6,3.7,8.3,8.3,8.3s8.3-3.7,8.3-8.3v-50.8l14.2-14.8l58.4,70c1.6,2,4,3,6.4,3
			c1.9,0,3.8-0.6,5.3-1.9c3.5-2.9,4-8.2,1.1-11.7L821.5,75.5z"></path>
	</g>
	<path class="st1 SKDdAcLO_8" d="M212.7,115.5h-81.3 M118.5,150.4l42.4-115.8c1-2.8,4-15.1,10.8-15.1c6.2,0,9.9,12.3,11.1,15.1
		c11.3,28.3,32.7,88.9,42.3,115.8"></path>
	<path class="st1 SKDdAcLO_9" d="M428.7,15.1c-8.9,0-16.4,1.1-22.5,3.2c-6.2,2.1-11.2,5-15.1,8.8c-3.9,3.7-6.7,8.2-8.4,13.5
		c-1.7,5.3-3,9.7-3,16.2v52.1c0,12.8,4.3,23.2,12.2,31.3c7.9,8,20.2,12,36.8,12c16.6,0,28.2-4,36.1-12c7.9-8,11.8-18.5,11.8-31.3
		V56.7c0-6.5-0.1-10.9-1.9-16.2c-1.7-5.3-4.5-9.8-8.4-13.5c-3.9-3.7-8.9-6.6-15.1-8.8C445.1,16.2,437.6,15.1,428.7,15.1z"></path>
	<path class="st1 SKDdAcLO_10" d="M240.1,17.3l46,124.4c3.7,8.3,9.4,6.8,12.7,0l47.3-125.3"></path>
	<path class="st1 SKDdAcLO_11" d="M739.7,20.1c0,0-38.1-14.9-63.5,2.8c-18.2,12.9-13.1,41,2.9,49.3c16.7,7.1,65.6,15.2,67.2,35.5
		c1.4,18.3-0.7,41.8-45.6,43.8c-20.6,0.6-35.9-7-35.9-7"></path>
	<path class="st1 SKDdAcLO_12" d="M526.8,152.2V17.5H582c0,0,37.4-0.7,37.4,34.6s-50.6,32-50.6,32l-39.4,0.2"></path>
	<path class="st1 SKDdAcLO_13" d="M621.4,151.1L572.6,84.2"></path>
	<path class="st1 SKDdAcLO_14" d="M12.9,16.1L59.7,97L106.2,15.7"></path>
	<path class="st1 SKDdAcLO_15" d="M59.7,151.6L59.7,95.6"></path>
	<path class="st1 SKDdAcLO_16" d="M902.2,15.3L949.2,97L996.1,15.5"></path>
	<path class="st1 SKDdAcLO_17" d="M949.2,151.3L949.2,95.6"></path>
	<path class="st1 SKDdAcLO_18" d="M787.4,12.9L787.4,153.1"></path>
	<path class="st1 SKDdAcLO_19" d="M869.5,13.6L787.4,99"></path>
	<path class="st1 SKDdAcLO_20" d="M874.6,152.2L810.7,75.5"></path>
</g>
<style data-made-with="vivus-instant">.SKDdAcLO_0{stroke-dasharray:715 717;stroke-dashoffset:716;animation:SKDdAcLO_draw_0 6300ms ease-out 0ms infinite,SKDdAcLO_fade 6300ms linear 0ms infinite;}.SKDdAcLO_1{stroke-dasharray:796 798;stroke-dashoffset:797;animation:SKDdAcLO_draw_1 6300ms ease-out 0ms infinite,SKDdAcLO_fade 6300ms linear 0ms infinite;}.SKDdAcLO_2{stroke-dasharray:616 618;stroke-dashoffset:617;animation:SKDdAcLO_draw_2 6300ms ease-out 0ms infinite,SKDdAcLO_fade 6300ms linear 0ms infinite;}.SKDdAcLO_3{stroke-dasharray:680 682;stroke-dashoffset:681;animation:SKDdAcLO_draw_3 6300ms ease-out 0ms infinite,SKDdAcLO_fade 6300ms linear 0ms infinite;}.SKDdAcLO_4{stroke-dasharray:857 859;stroke-dashoffset:858;animation:SKDdAcLO_draw_4 6300ms ease-out 0ms infinite,SKDdAcLO_fade 6300ms linear 0ms infinite;}.SKDdAcLO_5{stroke-dasharray:525 527;stroke-dashoffset:526;animation:SKDdAcLO_draw_5 6300ms ease-out 0ms infinite,SKDdAcLO_fade 6300ms linear 0ms infinite;}.SKDdAcLO_6{stroke-dasharray:526 528;stroke-dashoffset:527;animation:SKDdAcLO_draw_6 6300ms ease-out 0ms infinite,SKDdAcLO_fade 6300ms linear 0ms infinite;}.SKDdAcLO_7{stroke-dasharray:742 744;stroke-dashoffset:743;animation:SKDdAcLO_draw_7 6300ms ease-out 0ms infinite,SKDdAcLO_fade 6300ms linear 0ms infinite;}.SKDdAcLO_8{stroke-dasharray:368 370;stroke-dashoffset:369;animation:SKDdAcLO_draw_8 6300ms ease-out 0ms infinite,SKDdAcLO_fade 6300ms linear 0ms infinite;}.SKDdAcLO_9{stroke-dasharray:398 400;stroke-dashoffset:399;animation:SKDdAcLO_draw_9 6300ms ease-out 0ms infinite,SKDdAcLO_fade 6300ms linear 0ms infinite;}.SKDdAcLO_10{stroke-dasharray:285 287;stroke-dashoffset:286;animation:SKDdAcLO_draw_10 6300ms ease-out 0ms infinite,SKDdAcLO_fade 6300ms linear 0ms infinite;}.SKDdAcLO_11{stroke-dasharray:314 316;stroke-dashoffset:315;animation:SKDdAcLO_draw_11 6300ms ease-out 0ms infinite,SKDdAcLO_fade 6300ms linear 0ms infinite;}.SKDdAcLO_12{stroke-dasharray:355 357;stroke-dashoffset:356;animation:SKDdAcLO_draw_12 6300ms ease-out 0ms infinite,SKDdAcLO_fade 6300ms linear 0ms infinite;}.SKDdAcLO_13{stroke-dasharray:83 85;stroke-dashoffset:84;animation:SKDdAcLO_draw_13 6300ms ease-out 0ms infinite,SKDdAcLO_fade 6300ms linear 0ms infinite;}.SKDdAcLO_14{stroke-dasharray:188 190;stroke-dashoffset:189;animation:SKDdAcLO_draw_14 6300ms ease-out 0ms infinite,SKDdAcLO_fade 6300ms linear 0ms infinite;}.SKDdAcLO_15{stroke-dasharray:57 59;stroke-dashoffset:58;animation:SKDdAcLO_draw_15 6300ms ease-out 0ms infinite,SKDdAcLO_fade 6300ms linear 0ms infinite;}.SKDdAcLO_16{stroke-dasharray:189 191;stroke-dashoffset:190;animation:SKDdAcLO_draw_16 6300ms ease-out 0ms infinite,SKDdAcLO_fade 6300ms linear 0ms infinite;}.SKDdAcLO_17{stroke-dasharray:56 58;stroke-dashoffset:57;animation:SKDdAcLO_draw_17 6300ms ease-out 0ms infinite,SKDdAcLO_fade 6300ms linear 0ms infinite;}.SKDdAcLO_18{stroke-dasharray:141 143;stroke-dashoffset:142;animation:SKDdAcLO_draw_18 6300ms ease-out 0ms infinite,SKDdAcLO_fade 6300ms linear 0ms infinite;}.SKDdAcLO_19{stroke-dasharray:119 121;stroke-dashoffset:120;animation:SKDdAcLO_draw_19 6300ms ease-out 0ms infinite,SKDdAcLO_fade 6300ms linear 0ms infinite;}.SKDdAcLO_20{stroke-dasharray:100 102;stroke-dashoffset:101;animation:SKDdAcLO_draw_20 6300ms ease-out 0ms infinite,SKDdAcLO_fade 6300ms linear 0ms infinite;}@keyframes SKDdAcLO_draw{100%{stroke-dashoffset:0;}}@keyframes SKDdAcLO_fade{0%{stroke-opacity:1;}96.82539682539682%{stroke-opacity:1;}100%{stroke-opacity:0;}}@keyframes SKDdAcLO_draw_0{9.523809523809524%{stroke-dashoffset: 716}35.978835978835974%{ stroke-dashoffset: 0;}100%{ stroke-dashoffset: 0;}}@keyframes SKDdAcLO_draw_1{10.185185185185185%{stroke-dashoffset: 797}36.64021164021163%{ stroke-dashoffset: 0;}100%{ stroke-dashoffset: 0;}}@keyframes SKDdAcLO_draw_2{10.846560846560847%{stroke-dashoffset: 617}37.301587301587304%{ stroke-dashoffset: 0;}100%{ stroke-dashoffset: 0;}}@keyframes SKDdAcLO_draw_3{11.507936507936508%{stroke-dashoffset: 681}37.96296296296296%{ stroke-dashoffset: 0;}100%{ stroke-dashoffset: 0;}}@keyframes SKDdAcLO_draw_4{12.16931216931217%{stroke-dashoffset: 858}38.62433862433862%{ stroke-dashoffset: 0;}100%{ stroke-dashoffset: 0;}}@keyframes SKDdAcLO_draw_5{12.83068783068783%{stroke-dashoffset: 526}39.285714285714285%{ stroke-dashoffset: 0;}100%{ stroke-dashoffset: 0;}}@keyframes SKDdAcLO_draw_6{13.492063492063492%{stroke-dashoffset: 527}39.94708994708994%{ stroke-dashoffset: 0;}100%{ stroke-dashoffset: 0;}}@keyframes SKDdAcLO_draw_7{14.153439153439153%{stroke-dashoffset: 743}40.60846560846561%{ stroke-dashoffset: 0;}100%{ stroke-dashoffset: 0;}}@keyframes SKDdAcLO_draw_8{14.814814814814817%{stroke-dashoffset: 369}41.269841269841265%{ stroke-dashoffset: 0;}100%{ stroke-dashoffset: 0;}}@keyframes SKDdAcLO_draw_9{15.476190476190476%{stroke-dashoffset: 399}41.93121693121693%{ stroke-dashoffset: 0;}100%{ stroke-dashoffset: 0;}}@keyframes SKDdAcLO_draw_10{16.13756613756614%{stroke-dashoffset: 286}42.59259259259259%{ stroke-dashoffset: 0;}100%{ stroke-dashoffset: 0;}}@keyframes SKDdAcLO_draw_11{16.7989417989418%{stroke-dashoffset: 315}43.25396825396825%{ stroke-dashoffset: 0;}100%{ stroke-dashoffset: 0;}}@keyframes SKDdAcLO_draw_12{17.46031746031746%{stroke-dashoffset: 356}43.91534391534391%{ stroke-dashoffset: 0;}100%{ stroke-dashoffset: 0;}}@keyframes SKDdAcLO_draw_13{18.121693121693124%{stroke-dashoffset: 84}44.57671957671957%{ stroke-dashoffset: 0;}100%{ stroke-dashoffset: 0;}}@keyframes SKDdAcLO_draw_14{18.783068783068785%{stroke-dashoffset: 189}45.23809523809524%{ stroke-dashoffset: 0;}100%{ stroke-dashoffset: 0;}}@keyframes SKDdAcLO_draw_15{19.444444444444446%{stroke-dashoffset: 58}45.8994708994709%{ stroke-dashoffset: 0;}100%{ stroke-dashoffset: 0;}}@keyframes SKDdAcLO_draw_16{20.105820105820108%{stroke-dashoffset: 190}46.56084656084656%{ stroke-dashoffset: 0;}100%{ stroke-dashoffset: 0;}}@keyframes SKDdAcLO_draw_17{20.76719576719577%{stroke-dashoffset: 57}47.22222222222222%{ stroke-dashoffset: 0;}100%{ stroke-dashoffset: 0;}}@keyframes SKDdAcLO_draw_18{21.428571428571427%{stroke-dashoffset: 142}47.883597883597886%{ stroke-dashoffset: 0;}100%{ stroke-dashoffset: 0;}}@keyframes SKDdAcLO_draw_19{22.08994708994709%{stroke-dashoffset: 120}48.544973544973544%{ stroke-dashoffset: 0;}100%{ stroke-dashoffset: 0;}}@keyframes SKDdAcLO_draw_20{22.751322751322753%{stroke-dashoffset: 101}49.2063492063492%{ stroke-dashoffset: 0;}100%{ stroke-dashoffset: 0;}}</style></svg>
